<svg xmlns="http://www.w3.org/2000/svg" width="6.751" height="14.531" viewBox="0 0 6.751 14.531">
    <g>
        <path fill="#fff" fill-rule="evenodd" d="M77.2 306.25v7.025a.183.183 0 0 0 .183.183h2.609a.183.183 0 0 0 .183-.183v-7.14h1.89a.184.184 0 0 0 .183-.168l.181-2.151a.183.183 0 0 0-.182-.2h-2.072v-1.526a.648.648 0 0 1 .647-.648h1.458a.183.183 0 0 0 .183-.183v-2.149a.183.183 0 0 0-.183-.183h-2.463a2.618 2.618 0 0 0-2.617 2.617v2.074h-1.3a.183.183 0 0 0-.183.183v2.151a.183.183 0 0 0 .183.183h1.3z" transform="translate(-75.712 -298.927)"/>
    </g>
</svg>
