<svg xmlns="http://www.w3.org/2000/svg" width="14.529" height="14.527" viewBox="0 0 14.529 14.527">
    <g>
        <g>
            <path fill="#fff" d="M90.246 335.041a.854.854 0 1 0 .854.854.855.855 0 0 0-.854-.854zm-3.8 1.095a3.588 3.588 0 1 0 3.588 3.589 3.593 3.593 0 0 0-3.585-3.589zm0 5.886a2.3 2.3 0 1 1 2.3-2.3 2.3 2.3 0 0 1-2.297 2.3zm7.239-5.28a4.376 4.376 0 0 0-4.376-4.375h-5.774a4.376 4.376 0 0 0-4.376 4.375v5.776a4.376 4.376 0 0 0 4.376 4.376h5.776a4.376 4.376 0 0 0 4.376-4.376zm-1.37 5.776a3.006 3.006 0 0 1-3.006 3.006h-5.774a3.006 3.006 0 0 1-3-3.006v-5.776a3.006 3.006 0 0 1 3-3h5.776a3.006 3.006 0 0 1 3.006 3z" transform="translate(-79.159 -332.367)"/>
        </g>
    </g>
</svg>
