<svg id="left-quote" xmlns="http://www.w3.org/2000/svg" width="42.821" height="35.762" viewBox="0 0 42.821 35.762">
  <g id="Group_2420" data-name="Group 2420" transform="translate(0 0)">
    <path id="Path_10476" data-name="Path 10476" d="M13.706,24.065a11.346,11.346,0,0,0-3.135-.458,9.853,9.853,0,0,0-3.931.805C7.627,20.795,10,14.553,14.73,13.85a1.124,1.124,0,0,0,.916-.808l1.034-3.7a1.123,1.123,0,0,0-.929-1.415,7.85,7.85,0,0,0-1.057-.072c-5.676,0-11.3,5.925-13.67,14.408-1.392,4.977-1.8,12.459,1.629,17.169a10.24,10.24,0,0,0,8.323,4.183h.044a9.962,9.962,0,0,0,2.686-19.554Z" transform="translate(0 -7.858)"/>
    <path id="Path_10477" data-name="Path 10477" d="M68.321,28.77a9.986,9.986,0,0,0-5.989-4.7,11.346,11.346,0,0,0-3.135-.458,9.855,9.855,0,0,0-3.932.805c.988-3.618,3.362-9.86,8.092-10.563a1.124,1.124,0,0,0,.916-.808l1.034-3.7a1.123,1.123,0,0,0-.929-1.415,7.84,7.84,0,0,0-1.057-.072c-5.676,0-11.3,5.925-13.67,14.408-1.392,4.977-1.8,12.459,1.63,17.17A10.239,10.239,0,0,0,59.6,43.619h.044a9.962,9.962,0,0,0,8.674-14.85Z" transform="translate(-26.784 -7.858)"/>
  </g>
</svg>
