<svg xmlns="http://www.w3.org/2000/svg" width="15.103" height="14.424" viewBox="0 0 15.103 14.424">
    <defs>
        <style>
            .cls-1{fill:#fff}
        </style>
    </defs>
    <g id="Group_127">
        <g id="Group_4">
            <g id="Group_125" transform="translate(.211 4.471)">
                <g id="Group_124">
                    <g id="Group_123">
                        <path id="Path_760" d="M88.618 362.019v5.339a.239.239 0 0 1-.239.239h-2.756a.239.239 0 0 1-.238-.239v-4.964c0-1.307-.467-2.2-1.637-2.2a1.767 1.767 0 0 0-1.659 1.183 2.2 2.2 0 0 0-.107.788v5.192a.239.239 0 0 1-.239.239h-2.756a.239.239 0 0 1-.239-.239c.007-1.323.034-7.737.007-9.245a.236.236 0 0 1 .238-.241h2.749a.239.239 0 0 1 .239.238v1.14l-.021.031h.021v-.031a3.209 3.209 0 0 1 2.914-1.606c2.126 0 3.722 1.389 3.722 4.375zM73.966 367.6h2.755a.239.239 0 0 0 .238-.239v-9.251a.238.238 0 0 0-.238-.238h-2.755a.239.239 0 0 0-.239.238v9.248a.239.239 0 0 0 .239.242z" class="cls-1" transform="translate(-73.727 -357.644)"/>
                    </g>
                </g>
            </g>
            <g id="Group_126">
                <circle id="Ellipse_2" cx="1.731" cy="1.731" r="1.731" class="cls-1"/>
            </g>
        </g>
    </g>
</svg>
