<svg xmlns="http://www.w3.org/2000/svg" width="47.345" height="47.348" viewBox="0 0 47.345 47.348">
    <defs>
        <style>
            .cls-1{fill:#fff}
        </style>
    </defs>
    <g id="Group_153" transform="translate(409.313 -188.782)">
        <path id="Path_904" d="M-385.641 236.129a23.7 23.7 0 0 1-23.672-23.711 23.7 23.7 0 0 1 23.713-23.636 23.717 23.717 0 0 1 23.636 23.674 23.708 23.708 0 0 1-23.677 23.673zm-15-23.556c.018.362.039.921.078 1.479.024.347.066.694.119 1.038a17.977 17.977 0 0 0 6.494 11.549 16.844 16.844 0 0 0 14.378 3.67 17.107 17.107 0 0 0 10.936-7.068 18 18 0 0 0 3.211-14.112 17.634 17.634 0 0 0-6.178-10.806 16.838 16.838 0 0 0-15.119-3.748 17.113 17.113 0 0 0-10.821 7.55 18.556 18.556 0 0 0-3.097 10.448z" class="cls-1"/>
        <path id="Path_905" d="M-356.893 223.21c.431-.578.842-1.173 1.3-1.731a16.336 16.336 0 0 1 7.936-5.5 16.241 16.241 0 0 1 15.907 3.114 16.894 16.894 0 0 1 6.113 11 17.427 17.427 0 0 1-3.136 13.013 16.362 16.362 0 0 1-11.285 6.977 16.3 16.3 0 0 1-13.23-3.791 16.693 16.693 0 0 1-3.146-3.48 1 1 0 0 1-.129-.249 14.794 14.794 0 0 0 11.988 5.065 14.345 14.345 0 0 0 11.417-6.193 14.819 14.819 0 0 0-2-19.658 14.475 14.475 0 0 0-11.151-3.911 14.607 14.607 0 0 0-10.5 5.419z" class="cls-1" transform="translate(-40.398 -20.301)"/>
        <path id="Path_906" d="M-340.539 251.654a1.892 1.892 0 0 0 .03-2.8c.1-.01.174-.025.249-.025 2.816 0 5.632-.013 8.448 0a5.58 5.58 0 0 1 5.55 4.768 5.628 5.628 0 0 1-5.5 6.518c-2.724.012-5.448 0-8.173.006-.371 0-.372 0-.372.38v6.659a1.4 1.4 0 0 1-1.783 1.375 1.425 1.425 0 0 1-1.036-1.4v-5.311-3.054a1.417 1.417 0 0 1 1.515-1.484c3.238.005 6.476 0 9.713 0a2.817 2.817 0 0 0 2.568-4.094 2.7 2.7 0 0 0-2.563-1.553q-4.127-.007-8.255 0z" class="cls-1" transform="translate(-51.003 -46.275)"/>
        <path id="Path_907" d="M-307.384 299.882a1.618 1.618 0 0 1 .184-.027c1.054-.013 2.107-.021 3.161-.039a.489.489 0 0 1 .422.2q2.366 2.824 4.742 5.64a1.319 1.319 0 0 1-.266 1.9 1.333 1.333 0 0 1-1.913-.145q-1.579-1.851-3.148-3.712-1.525-1.808-3.04-3.622c-.044-.056-.082-.114-.142-.195z" class="cls-1" transform="translate(-78.554 -85.571)"/>
        <path id="Path_908" d="M-340.279 250.326a1.384 1.384 0 0 1-1.385 1.379 1.409 1.409 0 0 1-1.406-1.4 1.41 1.41 0 0 1 1.411-1.393 1.385 1.385 0 0 1 1.38 1.414z" class="cls-1" transform="translate(-51.051 -46.343)"/>
    </g>
</svg>
