<svg xmlns="http://www.w3.org/2000/svg" id="Group_165" width="866.956" height="867.005" viewBox="0 0 866.956 867.005">
    <defs>
        <style>
            .cls-1{fill:#585a4e}
        </style>
    </defs>
    <path id="Path_904" d="M24.155 1055.786c-239.539-.3-434.309-195.185-433.464-434.186.873-247.19 202.924-433.2 434.149-432.818 238.6.4 432.8 195.022 432.8 433.5C457.648 853.89 271 1055.1 24.155 1055.786zM-250.5 624.434c.336 6.635.705 16.869 1.42 27.077.444 6.358 1.2 12.707 2.182 19.006 13.292 85.3 51.951 156.795 118.913 211.487 77.016 62.9 165.433 85.763 263.274 67.2 83.9-15.924 150.563-60.756 200.261-129.428 56.007-77.386 75.081-164.43 58.8-258.415-13.736-79.3-51.312-146.12-113.13-197.873-80.813-67.66-173.769-91.508-276.854-68.626C-80.1 313.616-145.9 361.128-193.782 433.121c-37.774 56.792-56.166 119.572-56.718 191.313z" class="cls-1" transform="translate(409.312 -188.782)"/>
    <path id="Path_905" d="M-356.893 363.195c7.895-10.582 15.411-21.475 23.743-31.7 38.722-47.536 86.591-82.71 145.314-100.75 106.869-32.83 204.865-13.946 291.274 57.019 63.381 52.047 100.322 120.34 111.938 201.375 12.431 86.708-6.4 166.768-57.426 238.279C107.084 798.7 38.042 842.385-48.691 855.181c-90.718 13.384-171.619-11.132-242.267-69.415-22.295-18.389-41.276-39.877-57.6-63.716a18.283 18.283 0 0 1-2.364-4.564c59.35 63.863 132.04 96.938 219.516 92.751 87.443-4.187 158.093-42.657 209.064-113.4 81.388-112.958 65.17-266.868-36.677-359.976-57.657-52.71-126.195-77.02-204.2-71.619s-141.954 39.453-192.342 99.234z" class="cls-1" transform="translate(577.021 -104.506)"/>
    <path id="Path_906" d="M-295.627 300.6c14.681-15.017 16.029-34.972.547-51.224 1.822-.189 3.191-.458 4.56-.458 51.564-.017 103.128-.235 154.688.063 51.7.3 93.3 36.3 101.628 87.313 10.12 61.974-37.983 119.093-100.762 119.358-49.885.215-99.768.088-149.653.114-6.794 0-6.806.017-6.806 6.962-.009 40.646.075 81.291-.055 121.937-.059 17.574-15.966 29.672-32.646 25.179-11.166-3.006-18.947-13.346-18.969-25.562q-.088-48.622-.025-97.248c0-18.645-.034-37.286.013-55.931.046-16.466 11.241-27.2 27.74-27.17 59.287.092 118.577 0 177.863.088 39.205.063 64.666-39.869 47.016-74.963-9.457-18.8-25.658-28.4-46.94-28.43q-75.572-.128-151.16-.028z" class="cls-1" transform="translate(621.044 3.323)"/>
    <path id="Path_907" d="M-307.384 301.02a29.725 29.725 0 0 1 3.372-.5c19.292-.231 38.588-.386 57.88-.705a8.953 8.953 0 0 1 7.735 3.574q43.331 51.708 86.826 103.279c8.8 10.5 6.63 25.082-4.867 34.825-10.742 9.1-25.889 8.05-35.023-2.658q-28.912-33.9-57.636-67.966-27.916-33.1-55.666-66.333c-.819-.971-1.529-2.036-2.621-3.516z" class="cls-1" transform="translate(735.417 166.456)"/>
    <path id="Path_908" d="M-291.956 274.762a25.341 25.341 0 0 1-25.364 25.259 25.8 25.8 0 0 1-25.75-25.591 25.81 25.81 0 0 1 25.834-25.515 25.366 25.366 0 0 1 25.28 25.847z" class="cls-1" transform="translate(621.246 3.605)"/>
</svg>
