<svg xmlns="http://www.w3.org/2000/svg" width="42.821" height="35.762" viewBox="0 0 42.821 35.762">
  <g id="left-quote" transform="translate(42.821 35.762) rotate(180)">
    <g id="Group_2420" data-name="Group 2420" transform="translate(0 0)">
      <path fill="#000224" id="Path_10476" data-name="Path 10476" d="M13.705,16.207a11.346,11.346,0,0,0-3.135-.458,9.853,9.853,0,0,0-3.931.805C7.627,12.937,10,6.695,14.73,5.992a1.124,1.124,0,0,0,.916-.808l1.034-3.7A1.123,1.123,0,0,0,15.751.072,7.85,7.85,0,0,0,14.694,0C9.017,0,3.4,5.925,1.024,14.408c-1.392,4.977-1.8,12.459,1.629,17.169a10.24,10.24,0,0,0,8.323,4.183h.044a9.962,9.962,0,0,0,2.686-19.554Z"/>
      <path fill="#000224" id="Path_10477" data-name="Path 10477" d="M19.694,20.912a9.986,9.986,0,0,0-5.989-4.7,11.346,11.346,0,0,0-3.135-.458,9.855,9.855,0,0,0-3.932.805C7.627,12.937,10,6.695,14.73,5.992a1.124,1.124,0,0,0,.916-.808l1.034-3.7A1.123,1.123,0,0,0,15.751.072,7.84,7.84,0,0,0,14.694,0C9.017,0,3.4,5.925,1.023,14.408c-1.392,4.977-1.8,12.459,1.63,17.17a10.239,10.239,0,0,0,8.322,4.183h.044a9.962,9.962,0,0,0,8.674-14.85Z" transform="translate(21.842)"/>
    </g>
  </g>
</svg>
