<svg xmlns="http://www.w3.org/2000/svg" width="17.83" height="14.453" viewBox="0 0 17.83 14.453">
    <defs>
        <style>
            .cls-1{fill:#fff}
        </style>
    </defs>
    <g id="Group_3">
        <path id="Path_867" d="M456.516 452.481a2.374 2.374 0 0 1-.691.09l.012-.073a5.673 5.673 0 0 0 1.388-1.586c.052-.179-.01-.24-.01-.246l-1.16.492-.971.438a3.871 3.871 0 0 0-2.818-1.161 3.447 3.447 0 0 0-3.654 3.193 4.746 4.746 0 0 0 .149 1.2c0 .093 0-.093 0 0a11.394 11.394 0 0 1-4.448-1.32c-2.926-1.482-3.109-2.508-3.109-2.508a3.991 3.991 0 0 0-.231 3.37 4.2 4.2 0 0 0 1.323 1.539 3.113 3.113 0 0 1-.938-.154 2.067 2.067 0 0 1-.662-.323c-.285.7.287 1.94 1.277 2.832a5.247 5.247 0 0 0 1.631.846l-1.647.046c-.093 1.6 3.356 2.551 3.356 2.551a5.637 5.637 0 0 1-3.441 1.251 6.557 6.557 0 0 1-1.879-.276 8.96 8.96 0 0 0 6.117 2.191c6.158-.324 9.634-5.617 9.8-10.816l.008.011a4.328 4.328 0 0 0 .905-.761 6.378 6.378 0 0 0 1-1.338s-.923.406-1.307.512z" class="cls-1" transform="translate(-439.996 -450.435)"/>
        <path id="Path_868" d="M532.284 451.672c0 .1 0 .01 0 0z" class="cls-1" transform="translate(-515.064 -451.441)"/>
    </g>
</svg>
